.
 
http://www.scenetime.com    -   SceneTime [ We been having it ] !!!


How come you press harder on a remote control when you know the battery is dead? so you better seed to get speed ;)

        Seed back for speed


...................................NFO:.................................................                                                                                                     
       
     
     
       
       
     
     
                                         
                                         
                EXVID                    
                                         
         
                                         
         Filled the Archives             
                                         
         
                                         
                With:                    
                                         
         
                                         
                                    
     E240                           
                                    
     SP               (C) 2009      
                                         
     
     
     
                                                                                  
                                                                                   
                Animals.United.2010.3D.DVDRip.XviD-EXViD                            
                                                                                   
                                                                                  
     
                                                                                               
EXViD aims to iNTERNAL those releases which have been lost in the archives.
EXViD aims to PRE non-internal releases which have poor sources and are likely skipped by others. 
http://www.imdb.com/title/tt1620449/
Subtitles: NL
Date: 2011.08

Director: Reinhard Klooss, Holger Tappe

Genres: Animation | Family

Plot:
A group of animals waiting for the annual flood they rely on for food and water discover that the
humans, who have been destroying their habitats have built a dam for a leisure resort. The animals
endeavor to save the delta and send a message to the humans not to interfere with nature. 

Cast:
Billy Beach 	 ... 	 Vulture 2 (voice: English version) 
Jim Broadbent 	 ... 	 Winston (voice: English version) 
James Corden 	 ... 	 Billy (voice: English version) 
Nicola Devico Mamone 	 ... 	 Bffel Chino (voice) (as Nico Mamone) 
Marc Diraison 	 ... 	 Cook (voice: English version) 
Omid Djalili 	 ... 	 Bongo (voice: English version) 
Jason Donovan 	 ... 	 Toby (voice: English version) 
Dawn French 	 ... 	 Angie (voice: English version) 
Thomas Fritsch 	 ... 	Lwe Sokrates (voice) 
Stephen Fry 	 ... 	 Socrates (voice: English version) 
Michael Glover 	 ... 	 Mr. Smith (voice: English version) 
Mischa Goodman 	 ... 	 Billy's son 'Junior' (voice: English version) 
Oliver Green 	 ... 	 The Koala Bear 'Ken' (voice: English version) 
Jason Griffith 	 ... 	 The Chimpanzee ' Toto' (voice: English version) 
Peter Groeger 	 ... 	 Schildkrte Winston (voice) (as Peter Grger)

Stats:
Format                           : AVI
Format/Info                      : Audio Video Interleave
File size                        : 700 MiB
Duration                         : 1h 29mn
Overall bit rate                 : 1 096 Kbps
Writing application              : VirtualDubMod 1.5.10.2 (build 2540/release)
Writing library                  : VirtualDubMod build 2540/release

Video
ID                               : 0
Format                           : MPEG-4 Visual
Format profile                   : Advanced Simple@L5
Format settings, BVOP            : Yes
Format settings, QPel            : No
Format settings, GMC             : No warppoints
Format settings, Matrix          : Default (H.263)
Muxing mode                      : Packed bitstream
Codec ID                         : XVID
Codec ID/Hint                    : XviD
Duration                         : 1h 29mn
Bit rate                         : 957 Kbps
Width                            : 640 pixels
Height                           : 272 pixels
Display aspect ratio             : 2.35:1
Frame rate                       : 25.000 fps
Color space                      : YUV
Chroma subsampling               : 4:2:0
Bit depth                        : 8 bits
Scan type                        : Progressive
Bits/(Pixel*Frame)               : 0.220
Stream size                      : 611 MiB (87%)
Writing library                  : XviD 62

Audio
ID                               : 1
Format                           : MPEG Audio
Format version                   : Version 1
Format profile                   : Layer 3
Mode                             : Joint stereo
Mode extension                   : MS Stereo
Codec ID                         : 55
Codec ID/Hint                    : MP3
Duration                         : 1h 29mn
Bit rate mode                    : Variable
Bit rate                         : 128 Kbps
Channel(s)                       : 2 channels
Sampling rate                    : 48.0 KHz
Stream size                      : 80.4 MiB (11%)
Alignment                        : Aligned on interleaves
Interleave, duration             : 24 ms (0.60 video frame)
Interleave, preload duration     : 146 ms
Writing library                  : LAME3.90.
Encoding settings                : -m j -V 4 -q 2 -lowpass 17.6 --abr 128




Release notes:
enjoy!

Looking for:
75TB+ Archives
DUTCH/FLEMiSH Archives
                                                                                                    
Greets: CRBS EPiSODE FiCO FLS iLS KLASSiGER LiPSYNC MADE NODLABS RUNNER SPRiNTER      
   

                                                                    ASCII DONE BY XX^NFO 2oo9